<svg version="1.0" xmlns="http://www.w3.org/2000/svg" width="469.3333" height="110.6667" viewBox="0 0 352 83"><path d="M15.4 32.4c-.9 2.4.4 4.8 2.3 4.4 1.2-.2 1.8-1.2 1.8-2.8 0-2.9-3.2-4.1-4.1-1.6zM159.7 33.5c-8 2.8-11.7 8.6-11.7 18.2 0 11.2 5.8 17.3 16.6 17.3 7.6 0 9.4-.6 9.4-3.2 0-1.3-.5-1.8-1.4-1.5-7.6 2.9-16.1.4-19-5.7-5.9-12.5 5.5-26.3 17.8-21.6 2.3.9 2.6.7 2.6-1.4 0-3.6-7.1-4.7-14.3-2.1zM244.7 36.7c-.4.3-.7 1.9-.7 3.5 0 2.3-.4 2.8-2.5 2.8-1.8 0-2.5.5-2.5 2s.7 2 2.5 2c2.5 0 2.5 0 2.5 9.4 0 10.8 1 12.6 6.6 12.6 2.4 0 3.4-.5 3.4-1.5 0-.8-.8-1.5-1.8-1.5-3.4 0-4.2-2.1-4.2-10.7V47h3c2.3 0 3-.4 3-2s-.7-2-3-2c-2.8 0-3-.3-3-3.5 0-3.3-1.6-4.6-3.3-2.8zM313.7 36.7c-.4.3-.7 1.9-.7 3.5 0 2.3-.4 2.8-2.5 2.8-1.8 0-2.5.5-2.5 2s.7 2 2.5 2c2.5 0 2.5 0 2.5 9.4 0 10.8 1 12.6 6.6 12.6 2.4 0 3.4-.5 3.4-1.5 0-.8-.8-1.5-1.8-1.5-3.4 0-4.2-2.1-4.2-10.7V47h3c2.3 0 3-.4 3-2s-.7-2-3-2c-2.8 0-3-.3-3-3.5 0-3.3-1.6-4.6-3.3-2.8zM36 43c-9.3 2.2-12.7 16.7-5.4 23.5 4.7 4.3 14.6 4.1 15.2-.3.3-2 .1-2.1-2.3-1.2-4.3 1.6-6.5 1.2-9.6-1.9-4.1-4.1-4.1-10.1 0-14.2 3.1-3.1 5.3-3.5 9.5-1.9 2.2.8 2.6.7 2.6-1 0-1-.3-2.1-.7-2.3-2-1.1-6.1-1.4-9.3-.7zM57.3 43.2c-3.6.8-4.3 1.3-4.3 3.3 0 2.3.1 2.3 2.8.9 4.9-2.5 9.7-1.2 10.4 3 .3 1.7-.6 2.1-5.9 3.1-7 1.3-8.8 2.5-9.8 6.2-1 4 1.2 8 5 9.3 3.6 1.2 6 .6 9.3-2.3l2.2-2v2.1c0 1.6.6 2.2 2.1 2.2 2 0 2.1-.4 1.7-11-.3-9.4-.6-11.2-2.3-12.9-2.6-2.5-6-3-11.2-1.9zm9.2 16C65 66.8 55 68.7 55 61.4c0-3.4 2.7-4.8 9.8-5.3 2.1-.1 2.3.2 1.7 3.1zM132.6 43.1c-9 2.6-9 11-.1 14.5 5.5 2 7.2 4.5 4.9 6.8-1.8 1.8-5.1 2-8.9.6-2.4-.9-2.6-.8-2.3 1.2.2 1.4 1.3 2.4 3.3 3 6.3 1.7 13.5-2.1 13.5-7.2 0-3.1-1.3-4.4-7.9-8-3.1-1.7-4.6-3.2-4.6-4.5 0-2.7 4.6-4.3 8.5-2.8 2.7 1 3 .9 3-.7 0-1-.3-2.1-.7-2.3-2-1.1-6.1-1.4-8.7-.6zM15 56v13h5V43h-5v13zM79 56v13h2.5c2.5 0 2.5-.1 2.5-8.8C84 50 85.4 47 90.1 47c2.2 0 2.9-.5 2.9-2 0-2.9-5.4-2.8-7.4.2L84 47.4v-2.2c0-1.7-.6-2.2-2.5-2.2H79v13zM97 53.4c0 8.8.3 10.7 2 12.9 2.8 3.6 6.4 4.2 11.1 1.9 3-1.5 3.9-1.6 3.9-.6 0 .8.9 1.4 2 1.4 1.9 0 2-.7 2-13s-.1-13-2-13-2 .7-2 9-.2 9.3-2.5 11.5c-2.9 3-5.8 3.2-8.5.5-1.7-1.7-2-3.3-2-11.5 0-8.8-.1-9.5-2-9.5s-2 .7-2 10.4zM183.8 45.9c-2.9 2.5-3.2 3.5-3.6 9.5-.4 6.4-.3 6.7 3.1 10.1 3 3 4.2 3.5 8.1 3.5 6.1 0 9.9-2.1 12-6.4 2-4.2 2-8.6.2-13-2-4.8-5.1-6.6-11.3-6.6-4.4 0-5.8.5-8.5 2.9zm13.9 2.5c2.4 2.1 2.8 3.2 2.8 7.6 0 4.4-.4 5.5-2.8 7.6-5.9 5.1-13.7 1.4-13.7-6.5 0-5 1.6-8.6 4.4-9.9 3.5-1.7 6.3-1.3 9.3 1.2zM212 56c0 12.3.1 13 2 13 1.8 0 2-.7 2-7.5 0-9.1 1.8-14.2 5.4-15.1 6.3-1.6 8.6 2.3 8.6 14.7 0 7.2.2 7.9 2 7.9s2-.7 2-8.9c0-9.7-1.2-14.6-4-16.1-3.2-1.7-8.8-1.2-11 1-1.1 1.1-2.2 2-2.5 2-.3 0-.5-.9-.5-2 0-1.3-.7-2-2-2-1.9 0-2 .7-2 13zM262.8 44.1c-1 .5-1.8 1.7-1.8 2.6 0 1 .5 1.3 1.8.8.9-.4 3.3-.9 5.3-1.2 3-.4 3.9-.1 5.3 1.8 2.5 3.7 2 4.6-3.4 5.3-7 .9-9.7 2.4-10.9 5.8-1.1 3.1-.6 5.3 1.7 8 2.2 2.6 9 2.4 11.9-.4l2.3-2.1v2.1c0 1.6.6 2.2 2.1 2.2 2 0 2.1-.4 1.7-11.1-.3-10.2-.5-11.2-2.7-13-2.6-2.1-10.3-2.6-13.3-.8zm11.8 15.1c-1.4 7.6-11.6 9.5-11.6 2.2 0-3.4 2.9-5 9.4-5.3 2.7-.1 2.8.1 2.2 3.1zM291.8 44.5c-3.8 2.1-5.8 6.4-5.8 12.6 0 4.5.4 5.5 3.4 8.5 2.9 2.9 4.1 3.4 7.9 3.4 5.8 0 7.7-.8 7.7-3 0-1.6-.4-1.7-2.8-.8-6.4 2.4-12.2-1.8-12.2-9 0-7.5 7-12.4 13.1-9.1 1.8.9 2 .8 1.7-1.3-.3-2-.9-2.3-5.3-2.5-3-.2-6.1.3-7.7 1.2zM330.7 45c-2.7 2.1-3.6 6.1-1.9 8.6.4.6 3.1 2.3 6 3.8 5.7 2.9 7.1 4.8 5.2 7.1-1.4 1.7-7.2 2-10.1.4-1.8-.9-2-.8-1.7 1.3.3 2 .9 2.3 5.6 2.6 6.1.4 9.8-1.4 10.8-5.2.9-3.6-1.2-6.5-6.1-8.7-4.9-2.2-7-4.3-6.2-6.4.9-2.1 5.5-3 8.9-1.7 2.7 1 2.9.9 2.6-1.1-.3-1.9-1-2.2-5.4-2.5-3.9-.2-5.6.2-7.7 1.8z"/></svg>
